# xmcd CD database file
#
# Track frame offsets:
#	150
#	12572
#	29974
#	46355
#	59107
#	78861
#	92324
#	109276
#	123978
#	144641
#	163093
#	181178
#	198381
#	211658
#	229658
#
# Disc length: 3197 seconds
#
# Revision: 0
# Processed by: cddbd v1.5.1PL2 Copyright (c) Steve Scherf et al.
# Submitted via: CDex 1.51
#
DISCID=d00c7b0f
DTITLE=Lee Patterson - Razum Frazum
DYEAR=2004
DGENRE=Blues
TTITLE0=Working on a building
TTITLE1=Roll Calamity
TTITLE2=Diddie Wah Diddie
TTITLE3=Like to climb
TTITLE4=You'll dae
TTITLE5=She's enough for me
TTITLE6=Who needs a reason
TTITLE7=Siren
TTITLE8=Behave yourself chair
TTITLE9=Starlight
TTITLE10=Wasting time
TTITLE11=Give what you got
TTITLE12=Human Suit
TTITLE13=Working Man
TTITLE14=Basel Lorries
EXTD=YEAR: 2004
EXTT0=
EXTT1=
EXTT2=
EXTT3=
EXTT4=
EXTT5=
EXTT6=
EXTT7=
EXTT8=
EXTT9=
EXTT10=
EXTT11=
EXTT12=
EXTT13=
EXTT14=
PLAYORDER=
